<?xml version="1.0" encoding="iso-8859-1"?>
<!-- Generator: Adobe Illustrator 19.0.0, SVG Export Plug-In . SVG Version: 6.00 Build 0)  -->
<svg xmlns="http://www.w3.org/2000/svg" xmlns:xlink="http://www.w3.org/1999/xlink" version="1.1" id="Capa_1" x="0px" y="0px" viewBox="0 0 512 512" style="enable-background:new 0 0 512 512;" xml:space="preserve" width="512px" height="512px">
<g>
	<g>
		<path d="M166.249,46.747h-59.18c-5.522,0-10,4.478-10,10v59.179c0,5.522,4.478,10,10,10h59.18c5.523,0,10-4.478,10-10V56.747    C176.249,51.225,171.772,46.747,166.249,46.747z M156.249,105.926h-39.18V66.747h39.18V105.926z" fill="#efca38"/>
	</g>
</g>
<g>
	<g>
		<path d="M306.332,46.747h-59.18c-5.522,0-10,4.478-10,10v59.179c0,5.522,4.478,10,10,10h59.18c5.522,0,10-4.478,10-10V56.747    C316.332,51.225,311.853,46.747,306.332,46.747z M296.332,105.926h-39.18V66.747h39.18V105.926z" fill="#efca38"/>
	</g>
</g>
<g>
	<g>
		<path d="M166.249,146.498h-59.18c-5.522,0-10,4.478-10,10v59.179c0,5.522,4.478,10,10,10h59.18c5.523,0,10-4.478,10-10v-59.179    C176.249,150.976,171.772,146.498,166.249,146.498z M156.249,205.677h-39.18v-39.179h39.18V205.677z" fill="#efca38"/>
	</g>
</g>
<g>
	<g>
		<path d="M306.332,146.498h-59.18c-5.522,0-10,4.478-10,10v59.179c0,5.522,4.478,10,10,10h59.18c5.522,0,10-4.478,10-10v-59.179    C316.332,150.976,311.853,146.498,306.332,146.498z M296.332,205.677h-39.18v-39.179h39.18V205.677z" fill="#efca38"/>
	</g>
</g>
<g>
	<g>
		<path d="M166.249,246.249h-59.18c-5.522,0-10,4.478-10,10v59.179c0,5.522,4.478,10,10,10h59.18c5.523,0,10-4.478,10-10v-59.179    C176.249,250.727,171.772,246.249,166.249,246.249z M156.249,305.428h-39.18v-39.179h39.18V305.428z" fill="#efca38"/>
	</g>
</g>
<g>
	<g>
		<path d="M166.249,346h-59.18c-5.522,0-10,4.478-10,10v59.179c0,5.522,4.478,10,10,10h59.18c5.523,0,10-4.478,10-10V356    C176.249,350.478,171.772,346,166.249,346z M156.249,405.179h-39.18V366h39.18V405.179z" fill="#efca38"/>
	</g>
</g>
<g>
	<g>
		<path d="M216.509,65.15c-0.13-0.64-0.32-1.269-0.57-1.869c-0.25-0.601-0.56-1.181-0.92-1.73c-0.37-0.54-0.79-1.06-1.25-1.52    c-0.46-0.461-0.97-0.881-1.52-1.24c-0.54-0.36-1.12-0.67-1.73-0.92c-0.6-0.25-1.23-0.44-1.87-0.57c-1.29-0.26-2.619-0.26-3.899,0    c-0.641,0.13-1.27,0.32-1.87,0.57c-0.61,0.25-1.19,0.56-1.73,0.92c-0.55,0.359-1.06,0.779-1.52,1.24    c-0.46,0.46-0.88,0.979-1.24,1.52c-0.359,0.55-0.67,1.13-0.92,1.73s-0.45,1.23-0.57,1.869c-0.13,0.65-0.199,1.301-0.199,1.96    c0,0.65,0.069,1.301,0.199,1.95c0.13,0.64,0.32,1.27,0.57,1.87c0.25,0.601,0.561,1.18,0.92,1.73c0.36,0.54,0.78,1.06,1.24,1.52    s0.97,0.88,1.52,1.24c0.54,0.36,1.12,0.67,1.73,0.92c0.6,0.25,1.23,0.44,1.87,0.57s1.3,0.199,1.95,0.199    c0.649,0,1.31-0.069,1.949-0.199c0.641-0.13,1.271-0.32,1.87-0.57c0.61-0.25,1.191-0.56,1.73-0.92c0.55-0.36,1.06-0.78,1.52-1.24    c0.46-0.46,0.88-0.979,1.24-1.52c0.36-0.551,0.67-1.13,0.92-1.73c0.25-0.6,0.45-1.229,0.58-1.87c0.13-0.649,0.19-1.3,0.19-1.95    C216.699,66.451,216.637,65.8,216.509,65.15z" fill="#efca38"/>
	</g>
</g>
<g>
	<g>
		<path d="M377.611,230.848c-6.558,0-12.982,0.585-19.223,1.704V10c0-5.523-4.477-10-10-10H65.012c-5.523,0-10,4.477-10,10v441.28    H35.789c-5.522,0-10,4.478-10,10V502c0,5.522,4.478,10,10,10h341.822c0.271,0,0.539-0.011,0.805-0.033    c0.057-0.004,0.114-0.015,0.171-0.02c0.209-0.02,0.418-0.043,0.624-0.076c0.09-0.014,0.178-0.037,0.268-0.054    c0.171-0.032,0.342-0.064,0.511-0.105c0.114-0.028,0.226-0.064,0.339-0.096c0.141-0.04,0.283-0.077,0.422-0.123    c0.125-0.042,0.249-0.091,0.373-0.137c0.123-0.046,0.247-0.09,0.367-0.141c0.128-0.054,0.253-0.115,0.379-0.174    c0.114-0.054,0.229-0.106,0.34-0.164c0.125-0.064,0.246-0.135,0.368-0.205c0.11-0.063,0.219-0.126,0.326-0.193    c0.118-0.074,0.235-0.152,0.351-0.232c0.107-0.073,0.212-0.147,0.316-0.225c0.055-0.041,0.113-0.077,0.168-0.119    c1.042-0.809,25.816-20.14,50.885-50.522c34.23-41.484,51.586-81.837,51.586-119.936    C486.21,279.565,437.493,230.848,377.611,230.848z M75.012,20h263.377v218.158c-1.675,0.652-3.327,1.361-4.967,2.096    c-0.279,0.125-0.557,0.25-0.835,0.377c-0.624,0.286-1.246,0.574-1.864,0.872c-0.444,0.213-0.882,0.435-1.323,0.654    c-0.806,0.402-1.607,0.812-2.403,1.233c-0.543,0.288-1.085,0.577-1.623,0.874c-0.43,0.237-0.859,0.477-1.286,0.72    c-0.658,0.374-1.31,0.757-1.959,1.144c-0.411,0.245-0.821,0.491-1.229,0.742c-0.731,0.449-1.456,0.907-2.175,1.372    c-0.396,0.256-0.789,0.517-1.181,0.778c-0.528,0.352-1.052,0.71-1.574,1.071c-0.397,0.274-0.797,0.545-1.19,0.825    c-1.772-2.8-4.889-4.666-8.448-4.666h-59.18c-5.522,0-10,4.478-10,10v59.179c0,5.522,4.478,10,10,10h22.765    c-0.085,0.663-0.16,1.328-0.233,1.993c-0.083,0.751-0.158,1.504-0.225,2.26c-0.038,0.432-0.082,0.863-0.116,1.297    c-0.092,1.188-0.16,2.382-0.213,3.58c-0.015,0.336-0.027,0.673-0.039,1.01c-0.045,1.287-0.077,2.579-0.077,3.877    c0,1.248,0.022,2.5,0.06,3.756c0.019,0.643,0.055,1.284,0.084,1.925c0.014,0.291,0.023,0.582,0.038,0.874h-22.044    c-5.522,0-10,4.478-10,10v59.179c0,5.522,4.478,10,10,10h48.69c0.335,0.557,0.683,1.114,1.024,1.67    c0.186,0.303,0.371,0.605,0.558,0.907c0.571,0.923,1.15,1.846,1.738,2.769c0.013,0.02,0.026,0.041,0.039,0.061    c4.396,6.901,9.256,13.806,14.575,20.694h-97.074V100.105c0-5.522-4.478-10-10-10c-5.523,0-10,4.478-10,10V451.28H75.012V20z     M284.921,282.857c-0.071,0.116-0.14,0.232-0.21,0.348c-4.283,7.042-7.73,14.481-10.28,22.223h-17.279v-39.179h39.18v1.178    c-0.248,0.28-0.488,0.567-0.734,0.849c-0.14,0.161-0.279,0.322-0.418,0.484c-0.611,0.713-1.213,1.433-1.805,2.16    c-0.183,0.224-0.369,0.446-0.551,0.671c-0.64,0.8-1.267,1.609-1.884,2.426c-0.103,0.136-0.211,0.267-0.313,0.404    c-0.187,0.25-0.36,0.507-0.545,0.758c-0.461,0.627-0.914,1.258-1.36,1.895c-0.511,0.726-1.01,1.459-1.502,2.195    c-0.336,0.504-0.673,1.007-1,1.517C285.777,281.472,285.347,282.163,284.921,282.857z M285.027,405.179h-27.876V366h14.584    C274.327,378.84,278.775,391.946,285.027,405.179z M45.789,492v-20.72h284.755c7.272,8.029,14.242,14.995,20.311,20.72H45.789z     M377.569,489.041c-14.375-12.215-50.681-45.591-72.078-87.609c-0.078-0.154-0.158-0.307-0.235-0.461    c-0.37-0.731-0.733-1.466-1.093-2.202c-0.227-0.464-0.451-0.929-0.674-1.396c-0.279-0.582-0.558-1.164-0.831-1.75    c-0.502-1.079-0.999-2.161-1.48-3.25c-0.049-0.111-0.096-0.224-0.145-0.336c-0.477-1.087-0.943-2.179-1.398-3.276    c-0.108-0.26-0.213-0.52-0.319-0.781c-0.415-1.017-0.822-2.038-1.217-3.063c-0.076-0.196-0.152-0.392-0.227-0.589    c-0.451-1.185-0.889-2.375-1.312-3.57c-0.044-0.125-0.087-0.25-0.131-0.375c-0.398-1.136-0.781-2.278-1.152-3.423    c-0.068-0.21-0.136-0.421-0.203-0.631c-0.348-1.093-0.682-2.19-1.004-3.292c-0.062-0.213-0.127-0.427-0.188-0.64    c-0.353-1.228-0.689-2.46-1.007-3.696c-0.015-0.057-0.031-0.114-0.046-0.172c-0.343-1.342-0.666-2.689-0.967-4.04    c-0.006-0.024-0.01-0.049-0.015-0.073c-0.273-1.232-0.525-2.469-0.761-3.709c-0.067-0.35-0.127-0.698-0.19-1.047    c-0.167-0.918-0.324-1.839-0.47-2.761c-0.069-0.439-0.137-0.877-0.201-1.315c-0.171-1.162-0.333-2.326-0.469-3.494    c-0.006-0.052-0.01-0.103-0.016-0.154c-0.138-1.204-0.252-2.412-0.352-3.621c-0.029-0.357-0.054-0.714-0.08-1.07    c-0.069-0.953-0.125-1.907-0.169-2.863c-0.017-0.367-0.037-0.734-0.05-1.101c-0.046-1.276-0.077-2.554-0.077-3.835    c0-1.073,0.027-2.141,0.064-3.206c0.01-0.269,0.019-0.537,0.031-0.805c0.043-0.983,0.102-1.963,0.177-2.939    c0.029-0.371,0.065-0.739,0.099-1.108c0.053-0.595,0.114-1.188,0.179-1.781c4.911-44.239,42.522-78.759,88.048-78.759    c48.853,0,88.598,39.745,88.598,88.598C466.21,407.536,398.504,471.038,377.569,489.041z" fill="#efca38"/>
	</g>
</g>
<g>
	<g>
		<path d="M377.611,276.611c-34.461,0-62.497,28.036-62.497,62.497c0,34.462,28.036,62.498,62.497,62.498    s62.497-28.036,62.497-62.498C440.108,304.647,412.072,276.611,377.611,276.611z M377.611,381.606    c-23.433,0-42.497-19.064-42.497-42.498c0-23.433,19.064-42.497,42.497-42.497c23.433,0,42.497,19.065,42.497,42.497    C420.108,362.542,401.045,381.606,377.611,381.606z" fill="#efca38"/>
	</g>
</g>
<g>
</g>
<g>
</g>
<g>
</g>
<g>
</g>
<g>
</g>
<g>
</g>
<g>
</g>
<g>
</g>
<g>
</g>
<g>
</g>
<g>
</g>
<g>
</g>
<g>
</g>
<g>
</g>
<g>
</g>
</svg>
