<?xml version="1.0" encoding="iso-8859-1"?>
<!-- Generator: Adobe Illustrator 19.0.0, SVG Export Plug-In . SVG Version: 6.00 Build 0)  -->
<svg xmlns="http://www.w3.org/2000/svg" xmlns:xlink="http://www.w3.org/1999/xlink" version="1.1" id="Capa_1" x="0px" y="0px" viewBox="0 0 393.92 393.92" style="enable-background:new 0 0 393.92 393.92;" xml:space="preserve" width="512px" height="512px">
<g>
	<g>
		<path d="M314.704,79.2c-31.193-31.259-73.56-48.793-117.72-48.72C105.061,30.512,30.57,105.056,30.602,196.978    c0.032,91.922,74.576,166.414,166.498,166.382c91.922-0.032,166.414-74.576,166.382-166.498    C363.466,152.725,345.921,110.402,314.704,79.2z M202.784,351.64v-13.52c0-3.203-2.597-5.8-5.8-5.8s-5.8,2.597-5.8,5.8v13.52    c-80.962-3.021-145.899-67.958-148.92-148.92h13.52c3.203,0,5.8-2.597,5.8-5.8s-2.597-5.8-5.8-5.8h-13.52    c3.021-80.962,67.958-145.899,148.92-148.92v13.52c0.004,3.203,2.604,5.797,5.807,5.792c3.197-0.004,5.788-2.595,5.792-5.792V42.2    c80.962,3.021,145.899,67.958,148.92,148.92h-13.52c-3.203,0.004-5.797,2.604-5.792,5.807c0.004,3.197,2.595,5.788,5.792,5.792    h13.52C348.682,283.682,283.745,348.619,202.784,351.64z" fill="#f0cb38"/>
	</g>
</g>
<g>
	<g>
		<path d="M336.224,57.68C299.333,20.694,249.222-0.064,196.984,0C88.206-0.013,0.013,88.159,0,196.937    S88.159,393.907,196.937,393.92s196.971-88.158,196.984-196.936C393.926,144.734,373.172,94.624,336.224,57.68z M328.024,327.96    l0,0.04c-72.341,72.371-189.654,72.396-262.025,0.054S-6.398,138.4,65.944,66.029s189.654-72.396,262.025-0.054    c34.74,34.726,54.269,81.826,54.294,130.945C382.34,246.077,362.819,293.237,328.024,327.96z" fill="#f0cb38"/>
	</g>
</g>
<g>
	<g>
		<path d="M216.327,177.823c-0.021-0.021-0.042-0.042-0.063-0.063l-0.12-0.04c-3.662-3.666-8.299-6.207-13.36-7.32V97.16    c0-3.203-2.597-5.8-5.8-5.8c-3.203,0-5.8,2.597-5.8,5.8v73.24c-5.061,1.113-9.698,3.654-13.36,7.32    c-10.538,10.569-10.538,27.671,0,38.24l-18.24,25.8c-1.626,2.76-0.708,6.315,2.052,7.942c2.422,1.427,5.518,0.912,7.348-1.222    l18.52-26.16c9.972,3.765,21.225,1.339,28.76-6.2C226.856,205.562,226.885,188.416,216.327,177.823z M208.144,207.88    c-5.966,6.185-15.816,6.363-22.002,0.397c-6.185-5.966-6.363-15.816-0.397-22.002c5.966-6.185,15.816-6.363,22.002-0.397    c3.001,2.895,4.715,6.872,4.757,11.042c-0.003,4.114-1.644,8.058-4.56,10.96H208.144z" fill="#f0cb38"/>
	</g>
</g>
<g>
</g>
<g>
</g>
<g>
</g>
<g>
</g>
<g>
</g>
<g>
</g>
<g>
</g>
<g>
</g>
<g>
</g>
<g>
</g>
<g>
</g>
<g>
</g>
<g>
</g>
<g>
</g>
<g>
</g>
</svg>
