<?xml version="1.0" encoding="UTF-8" standalone="no"?>
<!-- Generator: Adobe Illustrator 19.0.0, SVG Export Plug-In . SVG Version: 6.00 Build 0)  -->

<svg
   xmlns:dc="http://purl.org/dc/elements/1.1/"
   xmlns:cc="http://creativecommons.org/ns#"
   xmlns:rdf="http://www.w3.org/1999/02/22-rdf-syntax-ns#"
   xmlns:svg="http://www.w3.org/2000/svg"
   xmlns="http://www.w3.org/2000/svg"
   xmlns:sodipodi="http://sodipodi.sourceforge.net/DTD/sodipodi-0.dtd"
   xmlns:inkscape="http://www.inkscape.org/namespaces/inkscape"
   version="1.1"
   id="Capa_1"
   x="0px"
   y="0px"
   viewBox="0 0 511.998 511.998"
   style="enable-background:new 0 0 511.998 511.998;"
   xml:space="preserve"
   width="512px"
   height="512px"
   sodipodi:docname="sketch-ico-2.svg"
   inkscape:version="0.92.1 r15371"><metadata
     id="metadata3811"><rdf:RDF><cc:Work
         rdf:about=""><dc:format>image/svg+xml</dc:format><dc:type
           rdf:resource="http://purl.org/dc/dcmitype/StillImage" /><dc:title></dc:title></cc:Work></rdf:RDF></metadata><defs
     id="defs3809" /><sodipodi:namedview
     pagecolor="#ffffff"
     bordercolor="#666666"
     borderopacity="1"
     objecttolerance="10"
     gridtolerance="10"
     guidetolerance="10"
     inkscape:pageopacity="0"
     inkscape:pageshadow="2"
     inkscape:window-width="961"
     inkscape:window-height="729"
     id="namedview3807"
     showgrid="false"
     showguides="true"
     inkscape:guide-bbox="true"
     inkscape:zoom="0.74414062"
     inkscape:cx="286.34821"
     inkscape:cy="256"
     inkscape:window-x="1334"
     inkscape:window-y="0"
     inkscape:window-maximized="0"
     inkscape:current-layer="Capa_1"><sodipodi:guide
       position="1050.8725,220.38759"
       orientation="0,1"
       id="guide3813"
       inkscape:locked="false" /><sodipodi:guide
       position="1216.1632,288.92276"
       orientation="0,1"
       id="guide3815"
       inkscape:locked="false" /></sodipodi:namedview><g
     id="g3684"><g
       id="g3682"><path
         d="M74.664,85.179c-17.673,0-32,14.327-32,32v85.333h21.333v-85.333c0-5.891,4.776-10.667,10.667-10.667h256V85.179H74.664z"
         fill="#f0cb38"
         id="path3680" /></g></g><g
     id="g3690"><g
       id="g3688"><path
         d="M74.664,405.179c-5.891,0-10.667-4.776-10.667-10.667V287.845H42.664v106.667c0,17.673,14.327,32,32,32h106.667v-21.333    H74.664z"
         fill="#f0cb38"
         id="path3686" /></g></g><g
     id="g3696"><g
       id="g3694"><path
         d="M338.206,432.688L79.155,173.637c-4.165-4.164-10.917-4.164-15.083,0L3.123,234.587c-4.164,4.165-4.164,10.917,0,15.083    L262.174,508.72c2,2.001,4.713,3.125,7.541,3.125c2.829-0.001,5.541-1.125,7.541-3.125l60.949-60.949    C342.37,443.605,342.37,436.853,338.206,432.688z M269.715,486.096L25.747,242.128l45.867-45.867L315.582,440.23L269.715,486.096z    "
         fill="#f0cb38"
         id="path3692" /></g></g><g
     id="g3702"><g
       id="g3700"><path
         d="M469.331,405.179h-160v21.333h117.333v53.333c0,5.891,4.776,10.667,10.667,10.667h32    c23.564,0,42.667-19.102,42.667-42.667C511.998,424.281,492.895,405.179,469.331,405.179z M469.331,469.179h-21.333v-42.667    h21.333c11.782,0,21.333,9.551,21.333,21.333C490.664,459.628,481.113,469.179,469.331,469.179z"
         fill="#f0cb38"
         id="path3698" /></g></g><g
     id="g3708"><g
       id="g3706"><path
         d="M469.331,85.179h-53.333v21.333h53.333c11.782,0,21.333,9.551,21.333,21.333v320h21.333v-320    C511.998,104.281,492.895,85.179,469.331,85.179z"
         fill="#f0cb38"
         id="path3704" /></g></g><g
     id="g3714"><g
       id="g3712"><rect
         x="164.042"
         y="314.513"
         transform="matrix(0.7071 -0.7071 0.7071 0.7071 -175.2621 227.2397)"
         width="45.259"
         height="21.333"
         fill="#f0cb38"
         id="rect3710" /></g></g><g
     id="g3720"><g
       id="g3718"><rect
         x="121.376"
         y="271.846"
         transform="matrix(0.7071 -0.7071 0.7071 0.7071 -157.5885 184.5736)"
         width="45.259"
         height="21.333"
         fill="#f0cb38"
         id="rect3716" /></g></g><g
     id="g3726"><g
       id="g3724"><rect
         x="206.686"
         y="357.18"
         transform="matrix(0.7071 -0.7071 0.7071 0.7071 -192.9419 269.8904)"
         width="45.259"
         height="21.333"
         fill="#f0cb38"
         id="rect3722" /></g></g><g
     id="g3732"><g
       id="g3730"><rect
         x="249.372"
         y="399.868"
         transform="matrix(0.7071 -0.7071 0.7071 0.7071 -210.6241 312.5771)"
         width="45.259"
         height="21.333"
         fill="#f0cb38"
         id="rect3728" /></g></g><g
     id="g3738"><g
       id="g3736"><rect
         x="78.679"
         y="229.18"
         transform="matrix(0.7071 -0.7071 0.7071 0.7071 -139.9243 141.885)"
         width="45.259"
         height="21.333"
         fill="#f0cb38"
         id="rect3734" /></g></g><g
     id="g3744"><g
       id="g3742"><path
         d="M460.094,23.824L445.352,9.083c-12.473-11.907-32.103-11.907-44.576,0L238.579,171.28c-4.164,4.165-4.164,10.917,0,15.083    l44.235,44.235c1.995,2.008,4.711,3.133,7.541,3.125c2.829-0.001,5.541-1.125,7.541-3.125L460.094,68.4    c0.005-0.005,0.01-0.01,0.015-0.015C472.41,56.076,472.403,36.125,460.094,23.824z M445.022,53.307L290.355,207.973    l-29.152-29.152L415.87,24.165c4.028-3.849,10.372-3.849,14.4,0l14.752,14.731c0.001,0.002,0.003,0.003,0.005,0.005    C449.003,42.88,449.001,49.33,445.022,53.307z"
         fill="#f0cb38"
         id="path3740" /></g></g><g
     id="g3750"><g
       id="g3748"><path
         d="M286.931,212.944l-46.037,15.371l15.371-46.112l-20.267-6.752l-22.123,66.357c-0.362,1.088-0.547,2.227-0.547,3.373    c0.001,5.891,4.778,10.666,10.669,10.664c1.129,0.004,2.252-0.169,3.328-0.512l66.357-22.123L286.931,212.944z"
         fill="#f0cb38"
         id="path3746" /></g></g><g
     id="g3756"><g
       id="g3754"><rect
         x="390.275"
         y="36.943"
         transform="matrix(0.7071 -0.7071 0.7071 0.7071 69.1923 303.4905)"
         width="21.333"
         height="62.56"
         fill="#f0cb38"
         id="rect3752" /></g></g><g
     id="g3762"><g
       id="g3760"><rect
         x="223.998"
         y="234.512"
         width="160"
         height="21.333"
         fill="#f0cb38"
         id="rect3758" /></g></g><g
     id="g3768"><g
       id="g3766"><rect
         x="405.331"
         y="234.512"
         width="21.333"
         height="21.333"
         fill="#f0cb38"
         id="rect3764" /></g></g><g
     id="g3774"><g
       id="g3772"><rect
         x="447.998"
         y="234.512"
         width="21.333"
         height="21.333"
         fill="#f0cb38"
         id="rect3770" /></g></g><g
     id="g3776" /><g
     id="g3778" /><g
     id="g3780" /><g
     id="g3782" /><g
     id="g3784" /><g
     id="g3786" /><g
     id="g3788" /><g
     id="g3790" /><g
     id="g3792" /><g
     id="g3794" /><g
     id="g3796" /><g
     id="g3798" /><g
     id="g3800" /><g
     id="g3802" /><g
     id="g3804" /></svg>