<?xml version="1.0" encoding="iso-8859-1"?>
<!-- Generator: Adobe Illustrator 18.0.0, SVG Export Plug-In . SVG Version: 6.00 Build 0)  -->
<!DOCTYPE svg PUBLIC "-//W3C//DTD SVG 1.1//EN" "http://www.w3.org/Graphics/SVG/1.1/DTD/svg11.dtd">
<svg xmlns="http://www.w3.org/2000/svg" xmlns:xlink="http://www.w3.org/1999/xlink" version="1.1" id="Capa_1" x="0px" y="0px" viewBox="0 0 71.995 71.995" style="enable-background:new 0 0 71.995 71.995;" xml:space="preserve" width="512px" height="512px">
<path d="M15.14,20.581c0.023-0.781,0.093-3.158,1.728-3.775c1.623-0.613,3.328,1.093,3.653,1.441  c0.377,0.404,0.356,1.037-0.047,1.414c-0.403,0.377-1.036,0.356-1.414-0.047c-0.537-0.569-1.281-0.995-1.486-0.936  c-0.002,0.001-0.385,0.284-0.435,1.963c-0.135,4.6,3.457,6.043,3.61,6.103c0.357,0.138,0.609,0.47,0.641,0.851  c0.99,11.794,10.335,15.609,14.706,15.609s13.716-3.815,14.705-15.609c0.032-0.385,0.284-0.718,0.646-0.853  c0.148-0.057,3.74-1.5,3.605-6.101c-0.049-1.679-0.433-1.961-0.437-1.963c-0.203-0.059-0.965,0.382-1.484,0.937  c-0.376,0.404-1.01,0.425-1.414,0.047c-0.403-0.377-0.424-1.01-0.047-1.414c0.326-0.348,2.031-2.054,3.653-1.441  c1.634,0.618,1.704,2.994,1.727,3.775c0.128,4.347-2.501,6.827-4.313,7.768c-1.259,11.62-10.419,16.854-16.642,16.854  s-15.382-5.234-16.642-16.854C17.641,27.408,15.012,24.928,15.14,20.581z M40.746,47.428c0,1.795-0.907,3.051-1.975,3.87  c0.131,0.476,0.458,2.195,0.865,4.448l-6.475-3.248c0.115-0.582,0.204-1.001,0.259-1.201c-1.068-0.819-1.975-2.075-1.975-3.87  c0-0.552,0.448-1,1-1h7.301C40.298,46.428,40.746,46.876,40.746,47.428z M33.627,48.428c0.505,1.299,1.925,1.855,2.469,2.025  c0.552-0.171,1.966-0.725,2.469-2.025H33.627z M29.976,47.003c-0.235-0.5-0.833-0.715-1.33-0.48l-4.694,2.204l-0.396-7.246  c-0.031-0.551-0.514-0.982-1.053-0.944c-0.551,0.03-0.974,0.502-0.944,1.053l0.102,1.858c-3.42,1.204-19.853,8.012-19.853,27.547  c0,0.552,0.448,1,1,1s1-0.448,1-1c0-17.616,13.933-23.998,17.966-25.477l0.263,4.798c0.018,0.332,0.2,0.633,0.485,0.804  c0.158,0.094,0.335,0.142,0.513,0.142c0.145,0,0.29-0.031,0.425-0.095l6.036-2.833C29.996,48.098,30.211,47.503,29.976,47.003z   M16.136,66.529c-0.552,0-1,0.448-1,1v3.466c0,0.552,0.448,1,1,1s1-0.448,1-1v-3.466C17.136,66.977,16.688,66.529,16.136,66.529z   M50.334,43.447l0.102-1.858c0.03-0.551-0.393-1.023-0.944-1.053c-0.547-0.037-1.023,0.393-1.053,0.944l-0.396,7.246l-4.694-2.204  c-0.5-0.235-1.095-0.021-1.33,0.48c-0.235,0.5-0.02,1.095,0.48,1.33l6.036,2.833c0.135,0.063,0.28,0.095,0.425,0.095  c0.178,0,0.355-0.047,0.513-0.142c0.285-0.17,0.467-0.472,0.485-0.804l0.262-4.784c3.985,1.511,17.967,8.053,17.967,25.463  c0,0.552,0.448,1,1,1s1-0.448,1-1C70.187,51.46,53.754,44.652,50.334,43.447z M55.859,66.529c-0.552,0-1,0.448-1,1v3.466  c0,0.552,0.448,1,1,1s1-0.448,1-1v-3.466C56.859,66.977,56.411,66.529,55.859,66.529z M48.075,20.601  c0.268,0,0.525,0.108,0.713,0.299s0.291,0.45,0.287,0.718c-0.015,0.826-0.174,5.016-1.875,6.398c-1.07,0.87-2.749,1.41-4.379,1.41  c0,0,0,0,0,0c-1.538,0-2.824-0.48-3.62-1.353c-0.921-1.01-1.529-3.219-1.861-4.771h-2.489c-0.332,1.552-0.94,3.761-1.861,4.771  c-0.796,0.872-2.082,1.353-3.62,1.353c-1.631,0-3.31-0.54-4.38-1.41c-1.701-1.382-1.86-5.572-1.875-6.398  c-0.004-0.268,0.099-0.527,0.287-0.718s0.445-0.299,0.713-0.299H34.15c0.292,0,0.569,0.127,0.759,0.349  c0.089,0.104,0.15,0.226,0.19,0.353h1.994c0.04-0.127,0.101-0.249,0.19-0.353c0.19-0.221,0.467-0.349,0.759-0.349H48.075z   M32.952,22.601h-7.784c0.141,1.683,0.539,3.421,1.083,3.863c0.709,0.576,1.962,0.962,3.12,0.962c0.955,0,1.736-0.255,2.142-0.701  C32.067,26.118,32.617,24.223,32.952,22.601z M47.022,22.601h-7.784c0.335,1.622,0.886,3.518,1.439,4.125  c0.407,0.445,1.188,0.701,2.143,0.701h0c1.157,0,2.41-0.387,3.119-0.962C46.483,26.023,46.882,24.284,47.022,22.601z M20.722,16.299  c0.001,0,0.003,0,0.004,0c0.55,0,0.998-0.445,1-0.996c0.012-2.607,0.822-4.999,2.28-6.733c0.355-0.423,0.301-1.054-0.122-1.409  c-0.423-0.354-1.054-0.301-1.409,0.122c-1.758,2.092-2.735,4.938-2.749,8.012C19.723,15.846,20.169,16.296,20.722,16.299z   M26.778,5.903h14.68c0.325,0.004,7.972,0.21,7.972,9.231c0,0.552,0.448,1,1,1s1-0.448,1-1c0-10.972-9.846-11.23-9.959-11.231  H26.778c-0.552,0-1,0.448-1,1S26.226,5.903,26.778,5.903z M28.451,2h13.872c0.375-0.015,9.381-0.04,10.459,9.174  c0.06,0.509,0.492,0.884,0.992,0.884c0.039,0,0.078-0.002,0.118-0.007c0.548-0.064,0.941-0.561,0.877-1.109  C53.483-0.042,42.398-0.004,42.307,0H28.451c-0.552,0-1,0.448-1,1S27.898,2,28.451,2z M41.019,63.586l-9.05-4.558  c-0.144,0.814-0.29,1.648-0.436,2.483l10.004,5.058C41.375,65.635,41.2,64.626,41.019,63.586z M32.334,56.973l8.257,4.158  c-0.174-0.992-0.347-1.981-0.515-2.928l-7.302-3.662C32.639,55.275,32.49,56.099,32.334,56.973z M29.884,70.995h6.473l-5.949-3.003  C30.186,69.272,30.002,70.328,29.884,70.995z M31.174,63.572c-0.141,0.813-0.279,1.605-0.41,2.36l10.03,5.063h1.512  c-0.085-0.477-0.203-1.154-0.344-1.968L31.174,63.572z" fill="#f0cb38"/>
<g>
</g>
<g>
</g>
<g>
</g>
<g>
</g>
<g>
</g>
<g>
</g>
<g>
</g>
<g>
</g>
<g>
</g>
<g>
</g>
<g>
</g>
<g>
</g>
<g>
</g>
<g>
</g>
<g>
</g>
</svg>
